<?xml version="1.0" standalone="no"?>
<!DOCTYPE svg PUBLIC "-//W3C//DTD SVG 20010904//EN"
 "http://www.w3.org/TR/2001/REC-SVG-20010904/DTD/svg10.dtd">
<svg version="1.0" xmlns="http://www.w3.org/2000/svg"
 width="141.000000pt" height="155.000000pt" viewBox="0 0 141.000000 155.000000"
 preserveAspectRatio="xMidYMid meet">

<g transform="translate(0.000000,155.000000) scale(0.100000,-0.100000)"
fill="#46e188" stroke="none">
<path d="M348 1506 c-63 -17 -153 -73 -195 -121 -20 -22 -50 -69 -67 -105 -29
-61 -31 -72 -31 -175 0 -104 2 -114 32 -176 36 -72 104 -147 167 -184 84 -49
141 -56 437 -53 l271 3 24 30 c34 43 32 95 -5 137 l-29 33 -284 5 c-193 3
-290 9 -304 17 -59 34 -114 125 -114 188 0 79 83 188 152 200 18 3 193 6 388
8 l355 2 3 103 3 102 -378 -1 c-270 0 -391 -4 -425 -13z"/>
<path d="M465 1198 c-76 -41 -72 -160 6 -187 20 -7 126 -11 283 -11 284 0 306
-5 363 -75 83 -101 58 -246 -55 -312 l-47 -28 -358 -3 -357 -3 2 -277 3 -277
103 -3 102 -3 0 175 c0 174 0 176 23 181 12 2 137 6 278 7 l255 3 76 37 c91
45 147 103 191 196 30 63 32 74 32 177 0 99 -3 116 -27 168 -53 114 -175 211
-296 236 -71 15 -550 14 -577 -1z"/>
</g>
</svg>
